<svg width="143" height="26" viewBox="0 0 143 26" fill="none" xmlns="http://www.w3.org/2000/svg">
<path d="M76.722 13.632L74.642 13.504V17.92C74.642 18.496 74.7273 18.912 74.8979 19.168C75.0899 19.424 75.4313 19.552 75.922 19.552C76.434 19.552 76.818 19.5733 77.074 19.616C77.3513 19.6373 77.6286 19.7333 77.906 19.904C78.418 20.1813 78.674 20.896 78.674 22.048C78.674 23.392 78.3753 24.2133 77.778 24.512C77.458 24.6613 77.17 24.7573 76.914 24.8C76.6793 24.8213 76.3273 24.832 75.858 24.832C73.7673 24.832 72.1139 24.2453 70.8979 23.072C69.6819 21.8987 69.074 20.288 69.074 18.24V13.504C67.922 13.568 66.9406 13.6 66.13 13.6L63.026 13.472V22.048C63.026 22.8587 62.9193 23.4667 62.706 23.872C62.514 24.256 62.2046 24.512 61.778 24.64C61.3726 24.768 60.8393 24.832 60.178 24.832C59.5166 24.832 58.9833 24.768 58.578 24.64C58.194 24.4907 57.9166 24.2667 57.746 23.968C57.5753 23.648 57.4686 23.36 57.426 23.104C57.4046 22.848 57.394 22.4747 57.394 21.984V13.504C56.9673 13.568 56.5193 13.6 56.05 13.6C55.602 13.6 55.218 13.4187 54.898 13.056C54.5993 12.6933 54.45 12.0747 54.45 11.2C54.45 10.3253 54.5033 9.696 54.61 9.312C54.7166 8.90667 54.866 8.61867 55.058 8.448C55.3993 8.17067 55.826 8.032 56.338 8.032L57.394 8.16V6.464C57.394 4.82133 57.9806 3.33867 59.1539 2.016C60.3273 0.672 62.0233 0 64.242 0C64.7326 0 65.0953 0.0213331 65.33 0.0639992C65.586 0.0853322 65.874 0.170666 66.194 0.32C66.77 0.618666 67.058 1.45067 67.058 2.816C67.058 3.84 66.8766 4.56533 66.5139 4.992C66.2153 5.35467 65.746 5.54667 65.106 5.568C64.914 5.58933 64.6153 5.6 64.2099 5.6C63.4206 5.6 63.026 5.86667 63.026 6.4V8.16C64.1993 8.07467 65.2233 8.032 66.0979 8.032L69.074 8.16V4.864C69.074 4.37333 69.0846 4.01067 69.106 3.776C69.1486 3.54133 69.2446 3.28533 69.394 3.008C69.6926 2.47467 70.5246 2.208 71.89 2.208C73.3406 2.208 74.194 2.60267 74.45 3.392C74.578 3.73333 74.642 4.27733 74.642 5.024V8.16C75.5806 8.07467 76.2846 8.032 76.754 8.032C77.2446 8.032 77.6073 8.05333 77.8419 8.096C78.0979 8.11733 78.3753 8.21333 78.674 8.384C79.25 8.66133 79.5379 9.48267 79.5379 10.848C79.5379 12.192 79.25 13.0133 78.674 13.312C78.354 13.4613 78.066 13.5573 77.81 13.6C77.5753 13.6213 77.2126 13.632 76.722 13.632Z" fill="white"/>
<path d="M47.1315 9.76002C47.2595 8.56535 48.1022 7.96802 49.6595 7.96802C50.4915 7.96802 51.1102 8.03202 51.5155 8.16002C51.9209 8.28802 52.1982 8.51202 52.3475 8.83202C52.5182 9.15202 52.6142 9.44002 52.6355 9.69602C52.6782 9.93068 52.6995 10.2934 52.6995 10.784V21.984C52.6995 22.4747 52.6782 22.848 52.6355 23.104C52.6142 23.3387 52.5289 23.616 52.3795 23.936C52.0809 24.4907 51.3449 24.768 50.1715 24.768C49.0195 24.768 48.2409 24.6294 47.8355 24.352C47.4515 24.0534 47.2275 23.6267 47.1635 23.072C46.3742 24.2027 45.0515 24.768 43.1955 24.768C41.3609 24.768 39.6542 23.9254 38.0755 22.24C36.4969 20.5547 35.7075 18.6027 35.7075 16.384C35.7075 14.144 36.4969 12.192 38.0755 10.528C39.6755 8.84268 41.4249 8.00002 43.3235 8.00002C44.0489 8.00002 44.7102 8.12802 45.3075 8.38402C45.9049 8.64002 46.3209 8.88535 46.5555 9.12002C46.7902 9.33335 46.9822 9.54668 47.1315 9.76002ZM41.3075 16.416C41.3075 17.12 41.5849 17.76 42.1395 18.336C42.6942 18.8907 43.3662 19.168 44.1555 19.168C44.9449 19.168 45.5955 18.88 46.1075 18.304C46.6409 17.728 46.9075 17.0987 46.9075 16.416C46.9075 15.712 46.6515 15.0614 46.1395 14.464C45.6489 13.8667 44.9769 13.568 44.1235 13.568C43.2915 13.568 42.6089 13.8667 42.0755 14.464C41.5635 15.0614 41.3075 15.712 41.3075 16.416Z" fill="white"/>
<path d="M33.9873 8.15998C34.3926 8.28798 34.7232 8.51198 34.9792 8.83198C35.2566 9.13065 35.3952 9.62132 35.3952 10.304C35.3952 10.9867 35.1926 11.7333 34.7872 12.544C34.3819 13.3546 33.7953 13.76 33.0273 13.76C32.6433 13.76 32.2699 13.6747 31.9072 13.504C31.5659 13.3333 31.1072 13.248 30.5312 13.248C29.9552 13.248 29.4113 13.4506 28.8993 13.856C28.4086 14.2613 28.1632 14.752 28.1632 15.328V22.048C28.1632 22.5386 28.1419 22.912 28.0992 23.168C28.0779 23.4027 27.9819 23.68 27.8113 24C27.4913 24.5546 26.6592 24.832 25.3152 24.832C24.2912 24.832 23.5553 24.6506 23.1073 24.288C22.7659 23.9893 22.5739 23.5307 22.5312 22.912C22.5312 22.6987 22.5312 22.3893 22.5312 21.984V10.752C22.5312 10.2613 22.5419 9.89865 22.5632 9.66398C22.6059 9.40798 22.7019 9.13065 22.8512 8.83198C23.1499 8.25598 23.9819 7.96798 25.3472 7.96798C26.6273 7.96798 27.4272 8.21332 27.7472 8.70398C27.9819 9.04532 28.0992 9.39732 28.0992 9.75998C28.2059 9.61065 28.3553 9.42932 28.5473 9.21598C28.7606 9.00265 29.1979 8.71465 29.8593 8.35198C30.5206 7.98932 31.0966 7.80798 31.5872 7.80798C32.0992 7.80798 32.5259 7.83998 32.8672 7.90398C33.2086 7.94665 33.5819 8.03198 33.9873 8.15998Z" fill="white"/>
<path d="M2.848 1.34399L8.768 1.37599C11.8613 1.37599 14.5813 2.49599 16.928 4.73599C19.2747 6.95466 20.448 9.69599 20.448 12.96C20.448 16.2027 19.296 18.9867 16.992 21.312C14.7093 23.6373 11.936 24.8 8.672 24.8H2.816C1.51467 24.8 0.704 24.5333 0.384 24C0.128 23.552 0 22.8693 0 21.952V4.15999C0 3.64799 0.0106666 3.27466 0.0319999 3.03999C0.0746666 2.80533 0.181333 2.52799 0.352 2.20799C0.650667 1.63199 1.48267 1.34399 2.848 1.34399ZM8.768 19.136C10.304 19.136 11.6907 18.5707 12.928 17.44C14.1653 16.288 14.784 14.848 14.784 13.12C14.784 11.392 14.176 9.95199 12.96 8.79999C11.7653 7.62666 10.3573 7.03999 8.736 7.03999H5.664V19.136H8.768Z" fill="white"/>
<mask id="mask0_4074_4930" style="mask-type:alpha" maskUnits="userSpaceOnUse" x="80" y="1" width="63" height="25">
<path d="M123.441 10.208C124.444 8.69337 125.649 7.93604 127.057 7.93604C129.233 7.93604 130.855 8.86404 131.922 10.72C132.156 10.4 132.434 10.0694 132.754 9.72803C133.095 9.36537 133.628 8.98137 134.354 8.57603C135.079 8.14937 135.826 7.93604 136.594 7.93604C138.3 7.93604 139.729 8.59737 140.882 9.92003C142.034 11.2214 142.609 13.3867 142.609 16.416V22.016C142.609 22.5067 142.588 22.88 142.546 23.136C142.524 23.3707 142.428 23.648 142.258 23.968C141.98 24.544 141.159 24.832 139.794 24.832C138.45 24.832 137.628 24.5334 137.329 23.936C137.18 23.616 137.084 23.3387 137.042 23.104C137.02 22.848 137.01 22.4747 137.01 21.984V16.384C137.01 14.528 136.348 13.6 135.025 13.6C134.279 13.6 133.767 13.8454 133.49 14.336C133.234 14.8267 133.105 15.52 133.105 16.416V22.016C133.105 22.528 133.084 22.9014 133.042 23.136C133.02 23.3707 132.924 23.648 132.754 23.968C132.455 24.544 131.623 24.832 130.258 24.832C128.914 24.832 128.092 24.5334 127.794 23.936C127.644 23.616 127.548 23.3387 127.506 23.104C127.484 22.848 127.473 22.4747 127.473 21.984V16.384C127.473 14.528 126.812 13.6 125.49 13.6C124.21 13.6 123.57 14.528 123.57 16.384V22.048C123.57 22.5387 123.548 22.912 123.506 23.168C123.484 23.4027 123.388 23.68 123.217 24C122.897 24.5547 122.066 24.832 120.722 24.832C119.378 24.832 118.556 24.544 118.257 23.968C118.108 23.648 118.012 23.3707 117.969 23.136C117.948 22.9014 117.938 22.528 117.938 22.016V10.752C117.938 10.2614 117.948 9.8987 117.969 9.66403C118.012 9.40803 118.119 9.1307 118.29 8.83204C118.61 8.25603 119.367 7.96803 120.562 7.96803C121.756 7.96803 122.535 8.16003 122.897 8.54403C123.26 8.92803 123.441 9.4827 123.441 10.208Z" fill="url(#paint0_linear_4074_4930)"/>
<path d="M109.819 9.76002C109.947 8.56535 110.79 7.96802 112.347 7.96802C113.179 7.96802 113.798 8.03202 114.203 8.16002C114.608 8.28802 114.886 8.51202 115.035 8.83202C115.206 9.15202 115.302 9.44002 115.323 9.69602C115.366 9.93068 115.387 10.2934 115.387 10.784V21.984C115.387 22.4747 115.366 22.848 115.323 23.104C115.302 23.3387 115.216 23.616 115.067 23.936C114.768 24.4907 114.032 24.768 112.859 24.768C111.707 24.768 110.928 24.6294 110.523 24.352C110.139 24.0534 109.915 23.6267 109.851 23.072C109.062 24.2027 107.739 24.768 105.883 24.768C104.048 24.768 102.342 23.9254 100.763 22.24C99.1843 20.5547 98.395 18.6027 98.395 16.384C98.395 14.144 99.1843 12.192 100.763 10.528C102.363 8.84268 104.112 8.00002 106.011 8.00002C106.736 8.00002 107.398 8.12802 107.995 8.38402C108.592 8.64002 109.008 8.88535 109.243 9.12002C109.478 9.33335 109.67 9.54668 109.819 9.76002ZM103.995 16.416C103.995 17.12 104.272 17.76 104.827 18.336C105.382 18.8907 106.054 19.168 106.843 19.168C107.632 19.168 108.283 18.88 108.795 18.304C109.328 17.728 109.595 17.0987 109.595 16.416C109.595 15.712 109.339 15.0614 108.827 14.464C108.336 13.8667 107.664 13.568 106.811 13.568C105.979 13.568 105.296 13.8667 104.763 14.464C104.251 15.0614 103.995 15.712 103.995 16.416Z" fill="url(#paint1_linear_4074_4930)"/>
<path d="M93.2804 1.37598C94.1124 1.37598 94.7204 1.45064 95.1044 1.59998C95.5098 1.72798 95.7978 1.95198 95.9685 2.27198C96.2031 2.76264 96.3204 3.42398 96.3204 4.25598V16.64C96.3204 18.88 95.5098 20.864 93.8885 22.592C92.2671 24.2986 90.1978 25.152 87.6805 25.152C86.2725 25.152 85.0244 24.8426 83.9364 24.224C82.9551 23.6906 82.2725 23.2106 81.8885 22.784L81.6324 22.528C80.8858 21.7386 80.5125 21.0666 80.5125 20.512C80.5125 19.936 80.8858 19.264 81.6324 18.496C82.3791 17.728 83.0404 17.344 83.6164 17.344C84.1924 17.344 84.8324 17.696 85.5364 18.4C86.2404 19.104 86.9978 19.456 87.8084 19.456C88.6404 19.456 89.3231 19.1786 89.8564 18.624C90.3898 18.0693 90.6564 17.3333 90.6564 16.416V4.44798C90.6564 3.16798 90.8698 2.34664 91.2964 1.98398C91.7871 1.57864 92.4484 1.37598 93.2804 1.37598Z" fill="url(#paint2_linear_4074_4930)"/>
</mask>
<g mask="url(#mask0_4074_4930)">
<path d="M123.441 10.208C124.444 8.69337 125.649 7.93604 127.057 7.93604C129.233 7.93604 130.855 8.86404 131.922 10.72C132.156 10.4 132.434 10.0694 132.754 9.72803C133.095 9.36537 133.628 8.98137 134.354 8.57603C135.079 8.14937 135.826 7.93604 136.594 7.93604C138.3 7.93604 139.729 8.59737 140.882 9.92003C142.034 11.2214 142.609 13.3867 142.609 16.416V22.016C142.609 22.5067 142.588 22.88 142.546 23.136C142.524 23.3707 142.428 23.648 142.258 23.968C141.98 24.544 141.159 24.832 139.794 24.832C138.45 24.832 137.628 24.5334 137.329 23.936C137.18 23.616 137.084 23.3387 137.042 23.104C137.02 22.848 137.01 22.4747 137.01 21.984V16.384C137.01 14.528 136.348 13.6 135.025 13.6C134.279 13.6 133.767 13.8454 133.49 14.336C133.234 14.8267 133.105 15.52 133.105 16.416V22.016C133.105 22.528 133.084 22.9014 133.042 23.136C133.02 23.3707 132.924 23.648 132.754 23.968C132.455 24.544 131.623 24.832 130.258 24.832C128.914 24.832 128.092 24.5334 127.794 23.936C127.644 23.616 127.548 23.3387 127.506 23.104C127.484 22.848 127.473 22.4747 127.473 21.984V16.384C127.473 14.528 126.812 13.6 125.49 13.6C124.21 13.6 123.57 14.528 123.57 16.384V22.048C123.57 22.5387 123.548 22.912 123.506 23.168C123.484 23.4027 123.388 23.68 123.217 24C122.897 24.5547 122.066 24.832 120.722 24.832C119.378 24.832 118.556 24.544 118.257 23.968C118.108 23.648 118.012 23.3707 117.969 23.136C117.948 22.9014 117.938 22.528 117.938 22.016V10.752C117.938 10.2614 117.948 9.8987 117.969 9.66403C118.012 9.40803 118.119 9.1307 118.29 8.83204C118.61 8.25603 119.367 7.96803 120.562 7.96803C121.756 7.96803 122.535 8.16003 122.897 8.54403C123.26 8.92803 123.441 9.4827 123.441 10.208Z" fill="url(#paint3_linear_4074_4930)"/>
<path d="M109.819 9.76002C109.947 8.56535 110.79 7.96802 112.347 7.96802C113.179 7.96802 113.798 8.03202 114.203 8.16002C114.608 8.28802 114.886 8.51202 115.035 8.83202C115.206 9.15202 115.302 9.44002 115.323 9.69602C115.366 9.93068 115.387 10.2934 115.387 10.784V21.984C115.387 22.4747 115.366 22.848 115.323 23.104C115.302 23.3387 115.216 23.616 115.067 23.936C114.768 24.4907 114.032 24.768 112.859 24.768C111.707 24.768 110.928 24.6294 110.523 24.352C110.139 24.0534 109.915 23.6267 109.851 23.072C109.062 24.2027 107.739 24.768 105.883 24.768C104.048 24.768 102.342 23.9254 100.763 22.24C99.1843 20.5547 98.395 18.6027 98.395 16.384C98.395 14.144 99.1843 12.192 100.763 10.528C102.363 8.84268 104.112 8.00002 106.011 8.00002C106.736 8.00002 107.398 8.12802 107.995 8.38402C108.592 8.64002 109.008 8.88535 109.243 9.12002C109.478 9.33335 109.67 9.54668 109.819 9.76002ZM103.995 16.416C103.995 17.12 104.272 17.76 104.827 18.336C105.382 18.8907 106.054 19.168 106.843 19.168C107.632 19.168 108.283 18.88 108.795 18.304C109.328 17.728 109.595 17.0987 109.595 16.416C109.595 15.712 109.339 15.0614 108.827 14.464C108.336 13.8667 107.664 13.568 106.811 13.568C105.979 13.568 105.296 13.8667 104.763 14.464C104.251 15.0614 103.995 15.712 103.995 16.416Z" fill="url(#paint4_linear_4074_4930)"/>
<path d="M93.2804 1.37598C94.1124 1.37598 94.7204 1.45064 95.1044 1.59998C95.5098 1.72798 95.7978 1.95198 95.9685 2.27198C96.2031 2.76264 96.3204 3.42398 96.3204 4.25598V16.64C96.3204 18.88 95.5098 20.864 93.8885 22.592C92.2671 24.2986 90.1978 25.152 87.6805 25.152C86.2725 25.152 85.0244 24.8426 83.9364 24.224C82.9551 23.6906 82.2725 23.2106 81.8885 22.784L81.6324 22.528C80.8858 21.7386 80.5125 21.0666 80.5125 20.512C80.5125 19.936 80.8858 19.264 81.6324 18.496C82.3791 17.728 83.0404 17.344 83.6164 17.344C84.1924 17.344 84.8324 17.696 85.5364 18.4C86.2404 19.104 86.9978 19.456 87.8084 19.456C88.6404 19.456 89.3231 19.1786 89.8564 18.624C90.3898 18.0693 90.6564 17.3333 90.6564 16.416V4.44798C90.6564 3.16798 90.8698 2.34664 91.2964 1.98398C91.7871 1.57864 92.4484 1.37598 93.2804 1.37598Z" fill="url(#paint5_linear_4074_4930)"/>
<ellipse cx="114.22" cy="8.33203" rx="41.5" ry="8.5" fill="url(#paint6_linear_4074_4930)" fill-opacity="0.3"/>
</g>
<defs>
<linearGradient id="paint0_linear_4074_4930" x1="111.561" y1="25.152" x2="111.561" y2="1.37598" gradientUnits="userSpaceOnUse">
<stop stop-color="#40F4B8"/>
<stop offset="1" stop-color="#7527F0"/>
</linearGradient>
<linearGradient id="paint1_linear_4074_4930" x1="111.561" y1="25.152" x2="111.561" y2="1.37598" gradientUnits="userSpaceOnUse">
<stop stop-color="#40F4B8"/>
<stop offset="1" stop-color="#7527F0"/>
</linearGradient>
<linearGradient id="paint2_linear_4074_4930" x1="111.561" y1="25.152" x2="111.561" y2="1.37598" gradientUnits="userSpaceOnUse">
<stop stop-color="#40F4B8"/>
<stop offset="1" stop-color="#7527F0"/>
</linearGradient>
<linearGradient id="paint3_linear_4074_4930" x1="111.561" y1="25.152" x2="111.561" y2="1.37598" gradientUnits="userSpaceOnUse">
<stop stop-color="#40F4B8"/>
<stop offset="1" stop-color="#7527F0"/>
</linearGradient>
<linearGradient id="paint4_linear_4074_4930" x1="111.561" y1="25.152" x2="111.561" y2="1.37598" gradientUnits="userSpaceOnUse">
<stop stop-color="#40F4B8"/>
<stop offset="1" stop-color="#7527F0"/>
</linearGradient>
<linearGradient id="paint5_linear_4074_4930" x1="111.561" y1="25.152" x2="111.561" y2="1.37598" gradientUnits="userSpaceOnUse">
<stop stop-color="#40F4B8"/>
<stop offset="1" stop-color="#7527F0"/>
</linearGradient>
<linearGradient id="paint6_linear_4074_4930" x1="114.22" y1="8.73679" x2="114.22" y2="16.832" gradientUnits="userSpaceOnUse">
<stop stop-color="white" stop-opacity="0"/>
<stop offset="1" stop-color="white"/>
</linearGradient>
</defs>
</svg>
